<svg width="29" height="29" viewBox="0 0 29 29" fill="none" xmlns="http://www.w3.org/2000/svg">
<path d="M22.9589 14.4996C22.2907 14.4996 21.7506 15.041 21.7506 15.7079V25.3749C21.7506 26.0407 21.2092 26.5832 20.5423 26.5832H3.62511C2.95801 26.5832 2.41681 26.0407 2.41681 25.3749V8.45766C2.41681 7.79189 2.95801 7.24936 3.62511 7.24936H13.2921C13.9603 7.24936 14.5004 6.70794 14.5004 6.04107C14.5004 5.37397 13.9603 4.83255 13.2921 4.83255H3.62511C1.62647 4.83255 0 6.45902 0 8.45766V25.3749C0 27.3735 1.62647 29 3.62511 29H20.5423C22.541 29 24.1674 27.3735 24.1674 25.3749V15.7079C24.1674 15.0397 23.6271 14.4996 22.9589 14.4996Z" fill="#2A649C"/>
<path d="M11.3295 13.3988C11.245 13.4833 11.1882 13.5908 11.164 13.7068L10.3098 17.9797C10.2699 18.1778 10.3328 18.382 10.4753 18.5258C10.5901 18.6406 10.7448 18.7021 10.9032 18.7021C10.9417 18.7021 10.9817 18.6986 11.0216 18.6902L15.2932 17.8359C15.4116 17.8116 15.5191 17.7549 15.6025 17.6702L25.1631 8.1096L20.8915 3.8382L11.3295 13.3988Z" fill="#2A649C"/>
<path d="M28.1162 0.883653C26.9382 -0.294551 25.0217 -0.294551 23.8446 0.883653L22.1723 2.55593L26.4439 6.82755L28.1162 5.15506C28.6866 4.58598 29.0008 3.82706 29.0008 3.01991C29.0008 2.21276 28.6866 1.45384 28.1162 0.883653Z" fill="#2A649C"/>
</svg>
